<?xml version="1.0" ?><svg id="katman_1" style="enable-background:new 0 0 512 512;" version="1.1" viewBox="0 0 512 512" xml:space="preserve" xmlns="http://www.w3.org/2000/svg" xmlns:xlink="http://www.w3.org/1999/xlink"><style type="text/css">
	.st0{fill:#35495E;}
	.st1{fill:#2C3E50;}
	.st2{fill:#FFFFFF;}
</style><g><g><circle class="st0" cx="256" cy="256" r="250"/></g><path class="st1" d="M460.9,399.2c-0.5-0.5-0.9-0.9-1.3-1.3c-40-40-80.1-80.1-120.1-120.1c-55.1-55.1-110.2-110.1-165.2-165.3   c-7.6-7.6-19.5-8.2-27.4-0.1c-4.9,5-9.8,9.8-14.7,14.8c-4.7,4.8-6.6,10.5-5.3,17.1c0.2,1,0.1,1.7-0.7,2.4c-0.4,0.4-0.8,0.8-1.2,1.2   c-10.6,10-15.9,22.6-17.6,36.9c-1.3,10.8-0.5,21.5,1.6,32.2c3.2,16,8.9,31.1,16.3,45.7c13.5,26.6,31.2,50,52.2,71   c52.5,52.7,105.2,105.2,157.8,157.8c0.3,0.3,0.7,0.7,1,1c0.1,0.2,0.3,0.3,0.4,0.4C387.4,475.4,430.8,442.3,460.9,399.2z"/><path class="st2" d="M400.6,339.3l-60-60c-7.2-7.2-18.8-7.2-26,0L299,294.9c-4.9,4.9-6.4,11.9-4.6,18.1l-5.9,5.9c0,0,0,0,0,0   c-4.2,4.2-30.2-2.2-61.7-33.7c-31.5-31.5-37.9-57.5-33.7-61.7c0,0,0,0,0,0l5.9-5.9c1.7,0.5,3.4,0.7,5.1,0.7c4.7,0,9.4-1.8,13-5.4   l15.6-15.6c7.2-7.2,7.2-18.8,0-26l-60-60c-3.5-3.5-8.1-5.4-13-5.4c-4.9,0-9.5,1.9-13,5.4L131.1,127c-4.9,4.9-6.4,11.9-4.6,18.1   c0,0-5,5-5.2,5.4c-16.6,18.5-19.7,47.5-8.7,82.2c10.8,34,34,70,65.4,101.4c31.4,31.4,67.4,54.6,101.4,65.4   c13.7,4.3,26.4,6.5,38,6.5c19,0,34.9-5.8,46.3-17.1l3.3-3.3c1.6,0.5,3.4,0.7,5.1,0.7c4.9,0,9.5-1.9,13-5.4l15.6-15.6   C407.8,358.2,407.8,346.5,400.6,339.3z M159.7,118l66.4,66.4l-22,22L137.7,140L159.7,118z M353.8,379.1   c-8.7,8.7-21.2,13.1-36.5,13.1c-10.1,0-21.5-1.9-33.8-5.8c-31.9-10.1-66-32.1-95.8-62c-29.9-29.9-51.9-63.9-62-95.8   c-9.8-30.9-7.2-55.9,7.3-70.3l4.8-4.8l52.9,52.9l-7.6,7.6c-15.3,15.5,6,53.4,33.8,81.2c23.6,23.6,50.1,38.8,67.4,38.8   c5.8,0,10.4-1.7,13.8-5l7.5-7.5l52.9,52.9L353.8,379.1z M377.7,368.7c-3.2,3.2-3.8,3.8-5.3,3.8c-0.2,0-0.3,0-0.5,0l-1.7-0.1   l-64.4-64.4l22-22l66.4,66.4L377.7,368.7z"/></g></svg>